<svg width="54" height="78" viewBox="0 0 54 78" fill="none" xmlns="http://www.w3.org/2000/svg">
<rect x="39.1867" y="52.6689" width="14.7246" height="14.7246" fill="#112AE0"/>
<rect x="39.1867" y="36.2452" width="14.7246" height="14.7246" fill="#223DFE"/>
<rect x="10.8759" y="6.99164" width="6.79597" height="6.79597" fill="#223DFE"/>
<rect x="46.549" y="20.3879" width="6.79597" height="6.79597" fill="#223DFE"/>
<rect x="39.7352" y="13.5919" width="6.79597" height="6.79597" fill="#4ECEDA"/>
<rect x="46.549" y="6.79596" width="6.79597" height="6.79597" fill="#7434D4"/>
<rect x="39.7352" width="6.79597" height="6.79597" fill="#223DFE"/>
<path d="M14.3718 14.7602H21.1677V21.5562H14.3718V14.7602Z" fill="#223DFE"/>
<rect y="67.5861" width="6.79597" height="6.79597" fill="#223DFE"/>
<rect x="6.9057" y="57.7659" width="6.79597" height="6.79597" fill="#223DFE"/>
<rect x="11.2643" y="67.5861" width="9.62763" height="9.62763" fill="#4ECEDA"/>
<rect x="31.8242" y="52.6689" width="7.36231" height="7.36231" fill="#4960FF"/>
<rect x="31.8242" y="60.0311" width="7.36231" height="7.36231" fill="#2B45FF"/>
<rect x="24.462" y="60.0311" width="7.36231" height="7.36231" fill="#4F64FF"/>
<rect x="17.0997" y="52.6689" width="7.36231" height="7.36231" fill="#4ECEDA"/>
<rect x="6.33948" y="36.2452" width="14.7246" height="14.7246" fill="#7434D4"/>
<rect x="20.975" y="21.3634" width="14.7246" height="14.7246" fill="#223DFE"/>
</svg>
