<svg width="70" height="67" viewBox="0 0 70 67" fill="none" xmlns="http://www.w3.org/2000/svg">
<rect x="56.6815" y="53.7026" width="13.2977" height="13.2977" fill="#112AE0"/>
<rect x="56.6815" y="38.8704" width="13.2977" height="13.2977" fill="#223DFE"/>
<rect x="57.1929" y="31.1985" width="6.13742" height="6.13742" fill="#4ECEDA"/>
<rect x="63.3304" y="24.5498" width="6.13742" height="6.13742" fill="#223DFE"/>
<rect x="63.3304" y="18.4124" width="6.13742" height="6.13742" fill="#4ECEDA"/>
<rect x="63.3304" y="12.2747" width="6.13742" height="6.13742" fill="#7434D4"/>
<rect x="57.1929" width="6.13742" height="6.13742" fill="#223DFE"/>
<rect x="57.1929" y="18.4124" width="6.13742" height="6.13742" fill="#223DFE"/>
<rect x="45.941" y="28.6411" width="6.13742" height="6.13742" fill="#223DFE"/>
<rect x="21.3913" y="52.168" width="6.13742" height="6.13742" fill="#223DFE"/>
<rect x="6.5592" y="52.168" width="6.13742" height="6.13742" fill="#223DFE"/>
<rect x="0.52356" y="58.2305" width="6.13742" height="6.13742" fill="#223DFE"/>
<rect x="27.5287" y="58.3054" width="6.13742" height="6.13742" fill="#223DFE"/>
<rect x="12.6967" y="58.3054" width="8.69468" height="8.69468" fill="#4ECEDA"/>
<rect x="50.0326" y="53.7026" width="6.64887" height="6.64887" fill="#4960FF"/>
<rect x="50.0326" y="60.3513" width="6.64887" height="6.64887" fill="#2B45FF"/>
<rect x="43.3837" y="60.3513" width="6.64887" height="6.64887" fill="#4F64FF"/>
<rect x="36.7349" y="53.7026" width="6.64887" height="6.64887" fill="#4ECEDA"/>
<rect x="16.2768" y="24.5498" width="6.13742" height="6.13742" fill="#4ECEDA"/>
<rect x="41.8493" y="38.8704" width="13.2977" height="13.2977" fill="#677AFF"/>
<rect x="27.0173" y="38.8704" width="13.2977" height="13.2977" fill="#7434D4"/>
<rect x="27.0173" y="24.0381" width="13.2977" height="13.2977" fill="#223DFE"/>
</svg>
