<svg width="198" height="191" viewBox="0 0 198 191" fill="none" xmlns="http://www.w3.org/2000/svg">
<rect x="160.092" y="153.092" width="37.9084" height="37.9084" fill="#112AE0"/>
<rect x="160.092" y="110.809" width="37.9084" height="37.9084" fill="#223DFE"/>
<rect x="161.55" y="88.939" width="17.4962" height="17.4962" fill="#4ECEDA"/>
<rect x="179.046" y="69.9849" width="17.4962" height="17.4962" fill="#223DFE"/>
<rect x="179.046" y="52.4888" width="17.4962" height="17.4962" fill="#4ECEDA"/>
<rect x="179.046" y="34.9922" width="17.4962" height="17.4962" fill="#7434D4"/>
<rect x="161.55" width="17.4962" height="17.4962" fill="#223DFE"/>
<rect x="161.55" y="52.4888" width="17.4962" height="17.4962" fill="#223DFE"/>
<rect x="129.474" y="81.6489" width="17.4962" height="17.4962" fill="#223DFE"/>
<rect x="59.4883" y="148.718" width="17.4962" height="17.4962" fill="#223DFE"/>
<rect x="17.2061" y="148.718" width="17.4962" height="17.4962" fill="#223DFE"/>
<rect y="166" width="17.4962" height="17.4962" fill="#223DFE"/>
<rect x="76.9844" y="166.214" width="17.4962" height="17.4962" fill="#223DFE"/>
<rect x="34.7021" y="166.214" width="24.7863" height="24.7863" fill="#4ECEDA"/>
<rect x="141.138" y="153.092" width="18.9542" height="18.9542" fill="#4960FF"/>
<rect x="141.138" y="172.046" width="18.9542" height="18.9542" fill="#2B45FF"/>
<rect x="122.184" y="172.046" width="18.9542" height="18.9542" fill="#4F64FF"/>
<rect x="103.229" y="153.092" width="18.9542" height="18.9542" fill="#4ECEDA"/>
<rect x="44.9082" y="69.9849" width="17.4962" height="17.4962" fill="#4ECEDA"/>
<rect x="117.809" y="110.809" width="37.9084" height="37.9084" fill="#677AFF"/>
<rect x="75.5264" y="110.809" width="37.9084" height="37.9084" fill="#7434D4"/>
<rect x="75.5264" y="68.5269" width="37.9084" height="37.9084" fill="#223DFE"/>
</svg>
