<svg width="129" height="159" viewBox="0 0 139 199" fill="none" xmlns="http://www.w3.org/2000/svg">
<rect x="100.886" y="135.596" width="37.9084" height="37.9084" fill="#112AE0"/>
<rect x="100.886" y="93.313" width="37.9084" height="37.9084" fill="#223DFE"/>
<rect x="119.84" y="52.4888" width="17.4962" height="17.4962" fill="#223DFE"/>
<rect x="102.298" y="34.9922" width="17.4962" height="17.4962" fill="#4ECEDA"/>
<rect x="119.84" y="17.4961" width="17.4962" height="17.4962" fill="#7434D4"/>
<rect x="102.298" width="17.4962" height="17.4962" fill="#223DFE"/>
<path d="M37 38H54.4962V55.4962H37V38Z" fill="#223DFE"/>
<rect y="174" width="17.4962" height="17.4962" fill="#223DFE"/>
<rect x="17.7783" y="148.718" width="17.4962" height="17.4962" fill="#223DFE"/>
<rect x="29" y="174" width="24.7863" height="24.7863" fill="#4ECEDA"/>
<rect x="81.9316" y="135.596" width="18.9542" height="18.9542" fill="#4960FF"/>
<rect x="81.9316" y="154.55" width="18.9542" height="18.9542" fill="#2B45FF"/>
<rect x="62.9775" y="154.55" width="18.9542" height="18.9542" fill="#4F64FF"/>
<rect x="44.0234" y="135.596" width="18.9542" height="18.9542" fill="#4ECEDA"/>
<rect x="16.3213" y="93.313" width="37.9084" height="37.9084" fill="#7434D4"/>
<rect x="54" y="55" width="37.9084" height="37.9084" fill="#223DFE"/>
<rect x="28" y="18" width="17.4962" height="17.4962" fill="#223DFE"/>
</svg>
