<svg width="15" height="13" viewBox="0 0 15 13" fill="none" xmlns="http://www.w3.org/2000/svg">
<path d="M12.7227 2.375C13.707 2.375 14.4727 3.16797 14.4727 4.125V11.125C14.4727 12.1094 13.6797 12.875 12.7227 12.875H2.22266C1.23828 12.875 0.472656 12.1094 0.472656 11.125V2.375C0.472656 1.41797 1.23828 0.625 2.22266 0.625H5.44922C5.91406 0.625 6.35156 0.816406 6.67969 1.14453L8.01953 2.375H12.7227ZM13.1602 11.125V4.125C13.1602 3.90625 12.9414 3.6875 12.7227 3.6875H7.47266L5.72266 2.07422C5.64062 1.99219 5.53125 1.9375 5.42188 1.9375H2.22266C1.97656 1.9375 1.78516 2.15625 1.78516 2.375V11.125C1.78516 11.3711 1.97656 11.5625 2.22266 11.5625H12.7227C12.9414 11.5625 13.1602 11.3711 13.1602 11.125Z" fill="#3E3232" fill-opacity="0.5"/>
</svg>
