<svg width="13" height="15" viewBox="0 0 13 15" fill="none" xmlns="http://www.w3.org/2000/svg">
<path d="M4.53125 2.5H8.46875V1.40625C8.46875 1.05078 8.74219 0.75 9.125 0.75C9.48047 0.75 9.78125 1.05078 9.78125 1.40625V2.5H10.875C11.832 2.5 12.625 3.29297 12.625 4.25V13C12.625 13.9844 11.832 14.75 10.875 14.75H2.125C1.14062 14.75 0.375 13.9844 0.375 13V4.25C0.375 3.29297 1.14062 2.5 2.125 2.5H3.21875V1.40625C3.21875 1.05078 3.49219 0.75 3.875 0.75C4.23047 0.75 4.53125 1.05078 4.53125 1.40625V2.5ZM1.6875 13C1.6875 13.2461 1.87891 13.4375 2.125 13.4375H10.875C11.0938 13.4375 11.3125 13.2461 11.3125 13V6H1.6875V13Z" fill="#3E3232" fill-opacity="0.5"/>
</svg>
