<svg width="256" height="66" viewBox="0 0 256 66" fill="none" xmlns="http://www.w3.org/2000/svg">
<g filter="url(#filter0_d_100_5152)">
<g clip-path="url(#clip0_100_5152)">
<rect x="4" y="0.490097" width="248" height="57" rx="28.5" fill="url(#paint0_linear_100_5152)"/>
<rect x="22" y="-38.8599" width="14" height="200" transform="rotate(35 22 -38.8599)" fill="white" fill-opacity="0.4"/>
<path d="M34.0117 23.4588H37.71C38.5439 23.4588 39.1797 23.5226 39.6172 23.6502C40.2051 23.8233 40.7087 24.131 41.1279 24.573C41.5472 25.0151 41.8662 25.5574 42.085 26.2C42.3037 26.838 42.4131 27.6264 42.4131 28.5652C42.4131 29.3901 42.3105 30.101 42.1055 30.698C41.8548 31.4272 41.4971 32.0173 41.0322 32.4685C40.6813 32.8103 40.2074 33.0769 39.6104 33.2683C39.1637 33.4096 38.5667 33.4802 37.8193 33.4802H34.0117V23.4588ZM36.0352 25.1541V31.7918H37.5459C38.111 31.7918 38.5189 31.7599 38.7695 31.6961C39.0977 31.614 39.3688 31.475 39.583 31.2791C39.8018 31.0831 39.9795 30.7618 40.1162 30.3152C40.2529 29.864 40.3213 29.2511 40.3213 28.4763C40.3213 27.7016 40.2529 27.1069 40.1162 26.6922C39.9795 26.2774 39.7881 25.9539 39.542 25.7215C39.2959 25.489 38.9837 25.3318 38.6055 25.2498C38.3229 25.186 37.7692 25.1541 36.9443 25.1541H36.0352ZM43.7256 28.531C43.7256 27.5102 43.8783 26.6534 44.1836 25.9607C44.4115 25.4503 44.7214 24.9923 45.1133 24.5867C45.5098 24.1811 45.9427 23.8803 46.4121 23.6843C47.0365 23.42 47.7565 23.2879 48.5723 23.2879C50.0488 23.2879 51.2292 23.7459 52.1133 24.6619C53.002 25.5779 53.4463 26.8517 53.4463 28.4832C53.4463 30.101 53.0065 31.3679 52.127 32.284C51.2474 33.1954 50.0716 33.6511 48.5996 33.6511C47.1094 33.6511 45.9245 33.1977 45.0449 32.2908C44.1654 31.3793 43.7256 30.1261 43.7256 28.531ZM45.8105 28.4627C45.8105 29.5974 46.0726 30.4588 46.5967 31.0466C47.1208 31.63 47.7861 31.9216 48.5928 31.9216C49.3994 31.9216 50.0602 31.6323 50.5752 31.0535C51.0947 30.4701 51.3545 29.5974 51.3545 28.4353C51.3545 27.2869 51.1016 26.4301 50.5957 25.865C50.0944 25.2999 49.4268 25.0173 48.5928 25.0173C47.7588 25.0173 47.0866 25.3045 46.5762 25.8787C46.0658 26.4483 45.8105 27.3097 45.8105 28.4627ZM56.4541 33.4802L54.0615 23.4588H56.1328L57.6436 30.3425L59.4756 23.4588H61.8818L63.6387 30.4588L65.1768 23.4588H67.2139L64.7803 33.4802H62.6338L60.6377 25.9881L58.6484 33.4802H56.4541ZM68.2734 33.4802V23.4588H70.2422L74.3438 30.1511V23.4588H76.2236V33.4802H74.1934L70.1533 26.9451V33.4802H68.2734ZM78.4248 33.4802V23.5408H80.4482V31.7918H85.4795V33.4802H78.4248ZM86.5186 28.531C86.5186 27.5102 86.6712 26.6534 86.9766 25.9607C87.2044 25.4503 87.5143 24.9923 87.9062 24.5867C88.3027 24.1811 88.7357 23.8803 89.2051 23.6843C89.8294 23.42 90.5495 23.2879 91.3652 23.2879C92.8418 23.2879 94.0221 23.7459 94.9062 24.6619C95.7949 25.5779 96.2393 26.8517 96.2393 28.4832C96.2393 30.101 95.7995 31.3679 94.9199 32.284C94.0404 33.1954 92.8646 33.6511 91.3926 33.6511C89.9023 33.6511 88.7174 33.1977 87.8379 32.2908C86.9583 31.3793 86.5186 30.1261 86.5186 28.531ZM88.6035 28.4627C88.6035 29.5974 88.8656 30.4588 89.3896 31.0466C89.9137 31.63 90.5791 31.9216 91.3857 31.9216C92.1924 31.9216 92.8532 31.6323 93.3682 31.0535C93.8877 30.4701 94.1475 29.5974 94.1475 28.4353C94.1475 27.2869 93.8945 26.4301 93.3887 25.865C92.8874 25.2999 92.2197 25.0173 91.3857 25.0173C90.5518 25.0173 89.8796 25.3045 89.3691 25.8787C88.8587 26.4483 88.6035 27.3097 88.6035 28.4627ZM106.862 33.4802H104.661L103.786 31.2039H99.7803L98.9531 33.4802H96.8066L100.71 23.4588H102.85L106.862 33.4802ZM103.137 29.5154L101.756 25.7966L100.402 29.5154H103.137ZM107.936 23.4588H111.634C112.468 23.4588 113.104 23.5226 113.541 23.6502C114.129 23.8233 114.632 24.131 115.052 24.573C115.471 25.0151 115.79 25.5574 116.009 26.2C116.228 26.838 116.337 27.6264 116.337 28.5652C116.337 29.3901 116.234 30.101 116.029 30.698C115.779 31.4272 115.421 32.0173 114.956 32.4685C114.605 32.8103 114.131 33.0769 113.534 33.2683C113.088 33.4096 112.491 33.4802 111.743 33.4802H107.936V23.4588ZM109.959 25.1541V31.7918H111.47C112.035 31.7918 112.443 31.7599 112.693 31.6961C113.021 31.614 113.293 31.475 113.507 31.2791C113.726 31.0831 113.903 30.7618 114.04 30.3152C114.177 29.864 114.245 29.2511 114.245 28.4763C114.245 27.7016 114.177 27.1069 114.04 26.6922C113.903 26.2774 113.712 25.9539 113.466 25.7215C113.22 25.489 112.908 25.3318 112.529 25.2498C112.247 25.186 111.693 25.1541 110.868 25.1541H109.959Z" fill="white"/>
<path d="M222.278 22.3435L211.216 22.3562C211.022 22.347 210.854 22.4137 210.712 22.5564C210.569 22.6991 210.498 22.8671 210.498 23.0604C210.498 23.2538 210.567 23.4195 210.705 23.5576C210.843 23.6957 211.013 23.7648 211.216 23.7648L220.565 23.7796L210.471 33.8736C210.333 34.0117 210.264 34.1774 210.264 34.3708C210.264 34.5641 210.333 34.7298 210.471 34.868C210.609 35.0061 210.775 35.0751 210.968 35.0752C211.162 35.0752 211.327 35.0061 211.466 34.8681L221.56 24.774L221.574 34.1233C221.574 34.3259 221.644 34.4962 221.782 34.6343C221.92 34.7724 222.085 34.8415 222.279 34.8415C222.472 34.8416 222.64 34.7702 222.783 34.6275C222.926 34.4848 222.997 34.3214 222.997 34.1373L222.996 23.0617C222.996 22.8591 222.927 22.6888 222.789 22.5507C222.65 22.4126 222.48 22.3435 222.278 22.3435Z" fill="white"/>
</g>
</g>
<defs>
<filter id="filter0_d_100_5152" x="0" y="0.490097" width="256" height="65" filterUnits="userSpaceOnUse" color-interpolation-filters="sRGB">
<feFlood flood-opacity="0" result="BackgroundImageFix"/>
<feColorMatrix in="SourceAlpha" type="matrix" values="0 0 0 0 0 0 0 0 0 0 0 0 0 0 0 0 0 0 127 0" result="hardAlpha"/>
<feOffset dy="4"/>
<feGaussianBlur stdDeviation="2"/>
<feComposite in2="hardAlpha" operator="out"/>
<feColorMatrix type="matrix" values="0 0 0 0 0 0 0 0 0 0 0 0 0 0 0 0 0 0 0.25 0"/>
<feBlend mode="normal" in2="BackgroundImageFix" result="effect1_dropShadow_100_5152"/>
<feBlend mode="normal" in="SourceGraphic" in2="effect1_dropShadow_100_5152" result="shape"/>
</filter>
<linearGradient id="paint0_linear_100_5152" x1="4" y1="28.9901" x2="252" y2="28.9901" gradientUnits="userSpaceOnUse">
<stop stop-color="#114BA9"/>
<stop offset="1" stop-color="#4FC4EA"/>
</linearGradient>
<clipPath id="clip0_100_5152">
<rect x="4" y="0.490097" width="248" height="57" rx="28.5" fill="white"/>
</clipPath>
</defs>
</svg>
